# xmcd
#
# Track frame offsets:
#	150
#	9449
#	21049
#	32145
#	43484
#	53436
#	65850
#	76293
#	89084
#	100728
#	113008
#	123213
#	133856
#	144523
#	154409
#	165458
#	174677
#	186027
#	199040
#	210753
#	223186
#	234215
#	243921
#	255097
#
# Disc length: 3535 seconds
#
# Revision: 1
# Processed by: cddbd v1.5.2PL0 Copyright (c) Steve Scherf et al.
# Submitted via: audiograbber 1.83.01
#
DISCID=420dcd18
DTITLE=ferlin husky - born to loose (1959) country tunes sungs from the heart (
DTITLE=1959)
DYEAR=2013
DGENRE=Country
TTITLE0=born to loose
TTITLE1=to my sorrow
TTITLE2=my foolish heart
TTITLE3=too soon to know
TTITLE4=each time you leave
TTITLE5=a worried mind
TTITLE6=no letter today
TTITLE7=king of a lonely castle
TTITLE8=afraid
TTITLE9=no one will ever know
TTITLE10=time
TTITLE11=blues in my heart
TTITLE12=forgotten heartaches
TTITLE13=wise guys
TTITLE14=friend of mine
TTITLE15=cross-eyed girl from the ozarks
TTITLE16=just another face
TTITLE17=cotton pickin' heart
TTITLE18=irma
TTITLE19=please forgive me
TTITLE20=puxico polka
TTITLE21=shuffleboard shuffle
TTITLE22=guilty feeling
TTITLE23=electrified donkey
EXTD=
EXTT0=
EXTT1=
EXTT2=
EXTT3=
EXTT4=
EXTT5=
EXTT6=
EXTT7=
EXTT8=
EXTT9=
EXTT10=
EXTT11=
EXTT12=
EXTT13=
EXTT14=
EXTT15=
EXTT16=
EXTT17=
EXTT18=
EXTT19=
EXTT20=
EXTT21=
EXTT22=
EXTT23=
PLAYORDER=
